<svg width="52" height="52" viewBox="0 0 52 52" fill="none" xmlns="http://www.w3.org/2000/svg">
<path fill-rule="evenodd" clip-rule="evenodd" d="M17.6323 46.0417C18.8052 46.5111 20.0236 46.8903 21.2875 47.1792C21.9375 47.3236 22.5066 47.1878 22.9948 46.7718C23.4816 46.3573 23.725 45.7889 23.725 45.0667C23.725 44.5611 23.5538 44.101 23.2115 43.6865C22.8677 43.2705 22.4431 42.9903 21.9375 42.8458C21.0347 42.6292 20.1594 42.3489 19.3115 42.0052C18.4622 41.6628 17.6403 41.2389 16.8458 40.7333C16.3764 40.4444 15.8614 40.3274 15.301 40.3823C14.742 40.4358 14.2819 40.643 13.9208 41.0042C13.4153 41.5097 13.1899 42.0875 13.2448 42.7375C13.2983 43.3875 13.6139 43.893 14.1917 44.2542C15.3111 44.9764 16.458 45.5722 17.6323 46.0417ZM9.12817 38.5927C9.75939 38.6475 10.3278 38.4222 10.8333 37.9167C11.1944 37.5555 11.4017 37.1042 11.4552 36.5625C11.5101 36.0208 11.3931 35.5333 11.1042 35.1C10.6347 34.3055 10.2194 33.493 9.85834 32.6625C9.49723 31.8319 9.20834 30.9472 8.99167 30.0083C8.84723 29.5028 8.55834 29.0694 8.125 28.7083C7.69167 28.3472 7.22223 28.1667 6.71667 28.1667C5.99445 28.1667 5.42534 28.4194 5.00934 28.925C4.59478 29.4305 4.47778 30.0083 4.65834 30.6583C4.94723 31.9583 5.33578 33.1955 5.824 34.3698C6.31078 35.5427 6.91528 36.6528 7.6375 37.7C7.99861 38.2417 8.4955 38.5392 9.12817 38.5927ZM5.0375 23.075C5.47084 23.5805 6.04861 23.8333 6.77084 23.8333C7.27639 23.8333 7.73717 23.6528 8.15317 23.2917C8.56773 22.9305 8.84723 22.4972 8.99167 21.9917C9.20834 21.0528 9.49723 20.1587 9.85834 19.3093C10.2194 18.4614 10.6347 17.6583 11.1042 16.9C11.3931 16.4667 11.5101 15.9792 11.4552 15.4375C11.4017 14.8958 11.1944 14.4444 10.8333 14.0833C10.3278 13.5778 9.75939 13.3431 9.12817 13.3792C8.4955 13.4153 7.99861 13.7042 7.6375 14.2458C6.91528 15.293 6.30139 16.4212 5.79584 17.6302C5.29028 18.8406 4.89306 20.0778 4.60417 21.3417C4.45973 21.9917 4.60417 22.5694 5.0375 23.075ZM28.7625 46.7458C29.2319 47.143 29.7917 47.2694 30.4417 47.125C35.3889 45.9694 39.4608 43.4417 42.6573 39.5417C45.8524 35.6417 47.45 31.1278 47.45 26C47.45 20.8361 45.8611 16.2861 42.6833 12.35C39.5056 8.41388 35.4431 5.90416 30.4958 4.82083C29.8458 4.67638 29.2774 4.81144 28.7907 5.226C28.3024 5.642 28.0583 6.19305 28.0583 6.87916C28.0583 7.38472 28.2302 7.84477 28.574 8.25933C28.9163 8.67533 29.3403 8.95555 29.8458 9.09999C33.7097 10.0389 36.8875 12.0792 39.3792 15.2208C41.8708 18.3625 43.1167 21.9555 43.1167 26C43.1167 30.0444 41.8708 33.6108 39.3792 36.699C36.8875 39.7858 33.7097 41.8347 29.8458 42.8458C29.3403 42.9903 28.9163 43.2792 28.574 43.7125C28.2302 44.1458 28.0583 44.6153 28.0583 45.1208C28.0583 45.8069 28.2931 46.3486 28.7625 46.7458ZM15.1948 11.6458C15.7177 11.7181 16.2139 11.6097 16.6833 11.3208C17.5139 10.8153 18.3625 10.3726 19.2292 9.99266C20.0958 9.61422 20.9806 9.31666 21.8833 9.09999C22.3889 8.95555 22.8222 8.67533 23.1833 8.25933C23.5444 7.84477 23.725 7.38472 23.725 6.87916C23.725 6.19305 23.4816 5.642 22.9948 5.226C22.5066 4.81144 21.9375 4.67638 21.2875 4.82083C20.0236 5.10972 18.7958 5.48888 17.6042 5.95833C16.4125 6.42777 15.2569 7.02361 14.1375 7.74583C13.5597 8.10694 13.2441 8.6125 13.1907 9.2625C13.1358 9.9125 13.3611 10.4903 13.8667 10.9958C14.2278 11.3569 14.6705 11.5736 15.1948 11.6458ZM36.8952 25.318C37.2419 25.5161 37.2419 26.0113 36.8952 26.2094L34.4686 27.5961L33.28 28.2894H22.781C22.781 29.6761 23.8705 30.7656 25.2571 30.7656H28.9714L28.4762 31.0628L26 32.499L23.2762 34.0342C21.939 34.7771 20.3048 33.8361 20.3048 32.3009V19.3256C20.3048 17.7904 21.939 16.8494 23.2762 17.5923L24.7619 18.4342L25.5048 18.8799L28.2286 20.4152L28.9714 20.8609H25.2571C23.8705 20.8609 22.781 21.9504 22.781 23.3371H33.3295L36.8952 25.318Z" fill="#1D34FE"/>
</svg>
